<svg width="39" height="39" viewBox="0 0 39 39" fill="none" xmlns="http://www.w3.org/2000/svg">
<path d="M19.7129 4.13721C11.0283 4.13721 3.96289 11.2027 3.96289 19.8872V26.4124C3.96289 28.0252 5.37567 29.3372 7.11289 29.3372H8.68789C9.10561 29.3372 9.50621 29.1713 9.80158 28.8759C10.097 28.5805 10.2629 28.1799 10.2629 27.7622V19.662C10.2629 19.2443 10.097 18.8437 9.80158 18.5483C9.50621 18.2529 9.10561 18.087 8.68789 18.087H7.25779C8.13349 11.9917 13.3782 7.28721 19.7129 7.28721C26.0475 7.28721 31.2923 11.9917 32.168 18.087H30.7379C30.3202 18.087 29.9196 18.2529 29.6242 18.5483C29.3288 18.8437 29.1629 19.2443 29.1629 19.662V29.3372C29.1629 31.0744 27.7501 32.4872 26.0129 32.4872H22.8629V30.9122H16.5629V35.6372H26.0129C29.4873 35.6372 32.3129 32.8117 32.3129 29.3372C34.0501 29.3372 35.4629 28.0252 35.4629 26.4124V19.8872C35.4629 11.2027 28.3974 4.13721 19.7129 4.13721Z" fill="white"/>
</svg>
