<svg width="30" height="31" viewBox="0 0 30 31" fill="none" xmlns="http://www.w3.org/2000/svg">
<path fill-rule="evenodd" clip-rule="evenodd" d="M25.629 4.38103C22.8087 1.5574 19.0582 0.00166389 15.0632 0C6.83028 0 0.12812 6.7005 0.124792 14.9368C0.124792 17.5691 0.81198 20.1381 2.11814 22.4043L0 30.1431L7.91847 28.0649C10.1015 29.2546 12.5574 29.8819 15.0566 29.8835H15.0632C23.2945 29.8835 29.9967 23.183 30 14.9468C30 10.9567 28.4493 7.20466 25.629 4.38103ZM15.0632 27.3627H15.0582C12.8303 27.3611 10.6456 26.7637 8.73877 25.6306L8.28619 25.3611L3.58735 26.594L4.84027 22.0133L4.54576 21.5441C3.30283 19.5674 2.64725 17.2829 2.64725 14.9368C2.65058 8.09151 8.21963 2.52246 15.0682 2.52246C18.3844 2.52413 21.5008 3.81697 23.8453 6.16306C26.188 8.51081 27.4792 11.629 27.4775 14.9468C27.4742 21.792 21.9052 27.3627 15.0632 27.3627ZM21.8735 18.0632C21.4992 17.8752 19.6656 16.9734 19.3228 16.8486C18.9817 16.7238 18.7338 16.6622 18.4842 17.0349C18.2346 17.4077 17.5191 18.2479 17.3012 18.4975C17.0832 18.7471 16.8652 18.777 16.4925 18.5907C16.1198 18.4043 14.9168 18.01 13.4908 16.7388C12.381 15.7488 11.6323 14.5275 11.4143 14.1531C11.1963 13.7787 11.391 13.5774 11.579 13.391C11.7471 13.2246 11.9517 12.9551 12.1381 12.7371C12.3245 12.5191 12.386 12.3644 12.5108 12.1148C12.6356 11.8652 12.574 11.6473 12.4792 11.4609C12.386 11.2729 11.6389 9.43594 11.3278 8.68885C11.0266 7.96506 10.7188 8.06156 10.4892 8.05158C10.2729 8.0416 10.0233 8.03827 9.77537 8.03827C9.52579 8.03827 9.12146 8.13145 8.7787 8.50416C8.43594 8.87854 7.47255 9.78037 7.47255 11.6173C7.47255 13.4542 8.81032 15.2296 8.99667 15.4792C9.18303 15.7288 11.629 19.4975 15.3727 21.1148C16.2646 21.4992 16.9601 21.7288 17.5008 21.9018C18.3943 22.1864 19.208 22.1448 19.8519 22.0499C20.569 21.9434 22.0599 21.1481 22.371 20.2762C22.6822 19.4043 22.6822 18.6572 22.589 18.5008C22.4958 18.3444 22.2446 18.2496 21.8735 18.0632Z" fill="white"/>
</svg>
