<svg width="38" height="39" viewBox="0 0 38 39" fill="none" xmlns="http://www.w3.org/2000/svg">
<path d="M18.97 2.16406C11.8077 2.16406 5.97852 7.99557 5.97852 15.1578C5.97851 27.7603 18.2386 37.3409 18.2386 37.3409C18.6693 37.6839 19.2798 37.6839 19.7105 37.3409C19.7105 37.3409 31.973 27.7603 31.9729 15.1578C31.9729 7.99557 26.1322 2.16406 18.97 2.16406ZM18.97 9.25387C22.2179 9.25387 24.8831 11.9099 24.8831 15.1578C24.8831 18.4058 22.2179 21.0687 18.97 21.0687C15.722 21.0687 13.066 18.4058 13.066 15.1578C13.066 11.9099 15.722 9.25387 18.97 9.25387Z" fill="white"/>
</svg>
