<svg width="39" height="39" viewBox="0 0 39 39" fill="none" xmlns="http://www.w3.org/2000/svg">
<path fill-rule="evenodd" clip-rule="evenodd" d="M28.0318 36.0033C24.8501 35.2062 18.3367 32.9588 12.4318 27.054C6.52695 21.1491 4.27966 14.6357 3.48251 11.4541C3.0244 9.62563 3.84934 7.86124 5.24812 6.86211L8.91511 4.24282C11.0607 2.71026 14.0455 3.23031 15.5463 5.39821L17.8549 8.73288C18.8349 10.1484 18.4969 12.0885 17.0959 13.0892L15.2551 14.404C15.5337 15.4697 16.4002 17.6581 19.114 20.3719C21.8277 23.0856 24.0161 23.952 25.0818 24.2306L26.3966 22.3898C27.3974 20.989 29.3374 20.6508 30.7529 21.6308L34.0876 23.9394C36.2555 25.4404 36.7755 28.425 35.2429 30.5706L32.6237 34.2377C31.6245 35.6365 29.8602 36.4614 28.0318 36.0033ZM14.6592 24.8266C20.029 30.1964 25.9548 32.2356 28.7972 32.9478C29.2127 33.0517 29.715 32.8903 30.0604 32.4068L32.6797 28.7397C33.1905 28.0246 33.0173 27.0297 32.2945 26.5293L28.9599 24.2207L27.5489 26.1962C26.9723 27.0036 25.9058 27.6367 24.6641 27.3688C23.1143 27.0344 20.2494 25.962 16.8866 22.5992C13.5238 19.2365 12.4514 16.3715 12.117 14.8217C11.8491 13.58 12.4823 12.5136 13.2896 11.9369L15.265 10.5259L12.9564 7.19122C12.4561 6.46858 11.4612 6.29523 10.746 6.80608L7.07902 9.42537C6.59543 9.77079 6.43398 10.2731 6.53807 10.6885C7.25026 13.531 9.28941 19.4568 14.6592 24.8266Z" fill="white"/>
</svg>
